<?xml version="1.0" standalone="no"?><!DOCTYPE svg PUBLIC "-//W3C//DTD SVG 1.1//EN" "http://www.w3.org/Graphics/SVG/1.1/DTD/svg11.dtd"><svg t="1579685283123" class="icon" viewBox="0 0 1024 1024" version="1.1" xmlns="http://www.w3.org/2000/svg" p-id="6495" xmlns:xlink="http://www.w3.org/1999/xlink" width="200" height="200"><defs><style type="text/css"></style></defs><path d="M417.728 271.424C370.688 395.84 462.272 471.808 503.104 498.176c146.688 94.656 318.656 57.344 318.656 57.344 0 156.864-180.864 284.032-403.968 284.032-223.104 0-403.968-127.104-403.968-284.032C13.824 398.592 194.688 271.424 417.728 271.424z" p-id="6496" fill="#ffffff"></path><path d="M204.416 740.8c0 0 3.328 28.544-16 59.008-20.992 33.088-87.296 84.992-87.296 84.992s120.256-12.032 186.304-36.992c62.72-23.744 198.4-65.664 198.4-65.664L204.416 740.8z" p-id="6497" fill="#ffffff"></path><path d="M474.176 327.488a4.188 2.945 0 1 0 536.064 0 4.188 2.945 0 1 0-536.064 0Z" p-id="6498" fill="#ffffff"></path><path d="M734.912 478.016c0 0 89.92 27.84 131.584 43.52 43.968 16.64 123.712 24.576 123.712 24.576s-44.032-34.56-57.856-56.448c-12.864-20.096-10.624-39.04-10.624-39.04L734.912 478.016z" p-id="6499" fill="#ffffff"></path></svg>